# xmcd
#
# Track frame offsets:
#	150
#	24076
#	40049
#	68003
#	95435
#	116358
#	147628
#	176239
#	202827
#	221128
#
# Disc length: 3224 seconds
#
# Revision: 3
# Processed by: cddbd v1.5.2PL0 Copyright (c) Steve Scherf et al.
# Submitted via: jack 3.1.1
#
DISCID=880c960a
DTITLE=Little Feat - Late Night Truck Stop CD1
DYEAR=1973
DGENRE=Blues
TTITLE0=Apolitical Blues
TTITLE1=Two Trains
TTITLE2=Got No Shadow Part 1
TTITLE3=The Fan
TTITLE4=Texas Rose Cafe
TTITLE5=Snakes On Everything
TTITLE6=Cat Fever
TTITLE7=Fat Man In Bathtub
TTITLE8=Walkin´ All Night
TTITLE9=Sailin´ Shoes
EXTD=Live At Ebbetsfield, Colorado 19th July 1973
EXTT0=
EXTT1=
EXTT2=
EXTT3=
EXTT4=
EXTT5=
EXTT6=
EXTT7=
EXTT8=
EXTT9=
PLAYORDER=
